<svg width="416" height="592" viewBox="0 0 416 592" xmlns="http://www.w3.org/2000/svg" xmlns:xlink="http://www.w3.org/1999/xlink">
  <title>
    create-a-community
  </title>
  <defs>
    <rect id="a" x="32" y="32" width="256" height="80" rx="4"/>
    <rect id="b" x="112" y="160" width="256" height="48" rx="4"/>
    <rect id="c" x="112" y="240" width="256" height="112" rx="4"/>
    <rect id="d" x="32" y="400" width="256" height="144" rx="4"/>
    <path d="M0 4s8.418 3.71 13.418 8.8C18.418 17.89 19 20 19 20H1s1-1.506 1-7.2S0 4 0 4z" id="e"/>
    <path d="M0 4s8.418 3.71 13.418 8.8C18.418 17.89 19 20 19 20H1s1-1.506 1-7.2S0 4 0 4z" id="f"/>
    <path d="M0 4s8.418 3.71 13.418 8.8C18.418 17.89 19 20 19 20H1s1-1.506 1-7.2S0 4 0 4z" id="g"/>
    <path d="M0 4s8.418 3.71 13.418 8.8C18.418 17.89 19 20 19 20H1s1-1.506 1-7.2S0 4 0 4z" id="h"/>
  </defs>
  <g fill="none" fill-rule="evenodd">
    <use fill="#FFF" xlink:href="#a"/>
    <rect stroke="#1E6FCC" x="32.5" y="32.5" width="255" height="79" rx="4"/>
    <use fill="#FFF" xlink:href="#b"/>
    <rect stroke="#1E6FCC" x="112.5" y="160.5" width="255" height="47" rx="4"/>
    <use fill="#FFF" xlink:href="#c"/>
    <rect stroke="#1E6FCC" x="112.5" y="240.5" width="255" height="111" rx="4"/>
    <rect fill="#000" opacity=".37" x="48" y="48" width="104" height="16" rx="4"/>
    <rect fill="#000" opacity=".37" x="168" y="48" width="104" height="16" rx="4"/>
    <rect fill="#000" opacity=".37" x="112" y="80" width="96" height="16" rx="4"/>
    <text font-family="Roboto-Regular, Roboto" font-size="16" fill="#1E6FCC">
      <tspan x="49" y="92">Smyth</tspan>
    </text>
    <rect fill="#000" opacity=".37" x="128" y="176" width="48" height="16" rx="4"/>
    <rect fill="#000" opacity=".37" x="192" y="176" width="48" height="16" rx="4"/>
    <rect fill="#000" opacity=".37" x="128" y="256" width="72" height="16" rx="4"/>
    <rect fill="#000" opacity=".37" x="216" y="256" width="136" height="16" rx="4"/>
    <rect fill="#000" opacity=".37" x="128" y="320" width="56" height="16" rx="4"/>
    <rect fill="#000" opacity=".37" x="200" y="320" width="96" height="16" rx="4"/>
    <rect fill="#000" opacity=".37" x="128" y="288" width="112" height="16" rx="4"/>
    <text font-family="Roboto-Regular, Roboto" font-size="16" fill="#1E6FCC">
      <tspan x="257" y="300">Smith</tspan>
    </text>
    <use fill="#FFF" xlink:href="#d"/>
    <rect stroke="#1E6FCC" x="32.5" y="400.5" width="255" height="143" rx="4"/>
    <rect fill="#000" opacity=".37" x="48" y="416" width="128" height="16" rx="4"/>
    <rect fill="#000" opacity=".37" x="192" y="416" width="80" height="16" rx="4"/>
    <rect fill="#000" opacity=".37" x="48" y="448" width="88" height="16" rx="4"/>
    <rect fill="#000" opacity=".37" x="152" y="448" width="120" height="16" rx="4"/>
    <text font-family="Roboto-Regular, Roboto" font-size="16" fill="#1E6FCC">
      <tspan x="53" y="492">Smyth</tspan>
    </text>
    <rect fill="#000" opacity=".37" x="120" y="480" width="80" height="16" rx="4"/>
    <rect fill="#000" opacity=".37" x="48" y="512" width="120" height="16" rx="4"/>
    <text font-family="Roboto-Regular, Roboto" font-size="16" fill="#1E6FCC">
      <tspan x="222" y="492">Smith</tspan>
    </text>
    <g>
      <g transform="matrix(1 0 0 -1 48 132)">
        <use fill="#FFF" xlink:href="#e"/>
        <path stroke="#1E6FCC" d="M1.083 5.064c.422.207.873.435 1.347.682C4.41 6.78 6.39 7.94 8.234 9.204c1.88 1.287 3.513 2.608 4.827 3.946 2.168 2.206 3.663 4.008 4.607 5.435.244.367.427.672.56.915H1.755c.077-.235.155-.517.232-.853.322-1.4.513-3.32.513-5.847 0-2.546-.384-4.784-1.026-6.694-.126-.375-.257-.722-.39-1.042z"/>
      </g>
      <path fill="#FFF" d="M48.632 108h19.116l-2.414 5H50.4"/>
    </g>
    <g>
      <g transform="matrix(1 0 0 -1 48 564)">
        <use fill="#FFF" xlink:href="#f"/>
        <path stroke="#1E6FCC" d="M1.083 5.064c.422.207.873.435 1.347.682C4.41 6.78 6.39 7.94 8.234 9.204c1.88 1.287 3.513 2.608 4.827 3.946 2.168 2.206 3.663 4.008 4.607 5.435.244.367.427.672.56.915H1.755c.077-.235.155-.517.232-.853.322-1.4.513-3.32.513-5.847 0-2.546-.384-4.784-1.026-6.694-.126-.375-.257-.722-.39-1.042z"/>
      </g>
      <path fill="#FFF" d="M48.632 540h19.116l-2.414 5H50.4"/>
    </g>
    <g>
      <g transform="rotate(180 176 186)">
        <use fill="#FFF" xlink:href="#g"/>
        <path stroke="#1E6FCC" d="M1.083 5.064c.422.207.873.435 1.347.682C4.41 6.78 6.39 7.94 8.234 9.204c1.88 1.287 3.513 2.608 4.827 3.946 2.168 2.206 3.663 4.008 4.607 5.435.244.367.427.672.56.915H1.755c.077-.235.155-.517.232-.853.322-1.4.513-3.32.513-5.847 0-2.546-.384-4.784-1.026-6.694-.126-.375-.257-.722-.39-1.042z"/>
      </g>
      <path fill="#FFF" d="M351.368 348h-19.116l2.414 5H349.6"/>
    </g>
    <g>
      <g transform="rotate(180 176 114)">
        <use fill="#FFF" xlink:href="#h"/>
        <path stroke="#1E6FCC" d="M1.083 5.064c.422.207.873.435 1.347.682C4.41 6.78 6.39 7.94 8.234 9.204c1.88 1.287 3.513 2.608 4.827 3.946 2.168 2.206 3.663 4.008 4.607 5.435.244.367.427.672.56.915H1.755c.077-.235.155-.517.232-.853.322-1.4.513-3.32.513-5.847 0-2.546-.384-4.784-1.026-6.694-.126-.375-.257-.722-.39-1.042z"/>
      </g>
      <path fill="#FFF" d="M351.368 204h-19.116l2.414 5H349.6"/>
    </g>
  </g>
</svg>
