<svg width="416" height="592" viewBox="0 0 416 592" xmlns="http://www.w3.org/2000/svg">
  <title>
    create-a-space
  </title>
  <g fill="none" fill-rule="evenodd">
    <text font-family="Roboto-Regular, Roboto" font-size="32" fill="#1E6FCC">
      <tspan x="164" y="62">Space</tspan>
    </text>
    <text font-family="Roboto-Regular, Roboto" font-size="24" fill="#1E6FCC">
      <tspan x="32" y="454">Trees</tspan>
    </text>
    <text font-family="Roboto-Regular, Roboto" font-size="24" fill="#1E6FCC">
      <tspan x="32" y="526">Members</tspan>
    </text>
    <text font-family="Roboto-Regular, Roboto" font-size="24" fill="#1E6FCC">
      <tspan x="32" y="238">Discussions</tspan>
    </text>
    <text font-family="Roboto-Regular, Roboto" font-size="24" fill="#1E6FCC">
      <tspan x="32" y="310">Goals/Tasks</tspan>
    </text>
    <text font-family="Roboto-Regular, Roboto" font-size="24" fill="#1E6FCC">
      <tspan x="32" y="382">Change Requests</tspan>
    </text>
    <rect fill="#000" opacity=".37" x="32" y="88" width="112" height="16" rx="4"/>
    <rect fill="#000" opacity=".37" x="160" y="88" width="88" height="16" rx="4"/>
    <rect fill="#000" opacity=".37" x="264" y="88" width="120" height="16" rx="4"/>
    <rect fill="#000" opacity=".37" x="32" y="152" width="96" height="16" rx="4"/>
    <rect fill="#000" opacity=".37" x="144" y="152" width="112" height="16" rx="4"/>
    <rect fill="#000" opacity=".37" x="272" y="152" width="112" height="16" rx="4"/>
    <rect fill="#000" opacity=".37" x="32" y="120" width="40" height="16" rx="4"/>
    <rect fill="#000" opacity=".37" x="88" y="120" width="112" height="16" rx="4"/>
    <rect fill="#000" opacity=".37" x="320" y="120" width="64" height="16" rx="4"/>
    <rect fill="#000" opacity=".37" x="216" y="120" width="88" height="16" rx="4"/>
    <rect fill="#000" opacity=".37" x="240" y="220" width="24" height="16" rx="4"/>
    <rect fill="#000" opacity=".37" x="280" y="220" width="24" height="16" rx="4"/>
    <rect fill="#000" opacity=".37" x="320" y="220" width="64" height="16" rx="4"/>
    <rect fill="#000" opacity=".37" x="240" y="292" width="24" height="16" rx="4"/>
    <rect fill="#000" opacity=".37" x="280" y="292" width="24" height="16" rx="4"/>
    <rect fill="#000" opacity=".37" x="320" y="292" width="64" height="16" rx="4"/>
    <rect fill="#000" opacity=".37" x="240" y="364" width="24" height="16" rx="4"/>
    <rect fill="#000" opacity=".37" x="280" y="364" width="24" height="16" rx="4"/>
    <rect fill="#000" opacity=".37" x="320" y="364" width="64" height="16" rx="4"/>
    <rect fill="#000" opacity=".37" x="240" y="436" width="24" height="16" rx="4"/>
    <rect fill="#000" opacity=".37" x="280" y="436" width="24" height="16" rx="4"/>
    <rect fill="#000" opacity=".37" x="320" y="436" width="64" height="16" rx="4"/>
    <rect fill="#000" opacity=".37" x="240" y="508" width="24" height="16" rx="4"/>
    <rect fill="#000" opacity=".37" x="280" y="508" width="24" height="16" rx="4"/>
    <rect fill="#000" opacity=".37" x="320" y="508" width="64" height="16" rx="4"/>
  </g>
</svg>
