<?xml version="1.0" encoding="UTF-8"?>
<svg width="416px" height="592px" viewBox="0 0 416 592" version="1.1" xmlns="http://www.w3.org/2000/svg" xmlns:xlink="http://www.w3.org/1999/xlink">
    <!-- Generator: Sketch 43.1 (39012) - http://www.bohemiancoding.com/sketch -->
    <title>create-a-space</title>
    <desc>Created with Sketch.</desc>
    <defs></defs>
    <g id="Page-2" stroke="none" stroke-width="1" fill="none" fill-rule="evenodd">
        <g id="create-a-space">
            <rect id="Rectangle-8" stroke="#000000" fill="#FFFFFF" opacity="0.5" x="32" y="32" width="352" height="56" rx="4"></rect>
            <text id="Come-work-with-us" font-family="Roboto-Regular, Roboto" font-size="32" font-weight="normal" fill="#1E6FCC">
                <tspan x="70" y="71">Come work with us</tspan>
            </text>
            <rect id="Rectangle" fill="#000000" opacity="0.5" x="32" y="168" width="128" height="16" rx="4"></rect>
            <rect id="Rectangle-Copy-3" fill="#000000" opacity="0.5" x="32" y="120" width="88" height="16" rx="4"></rect>
            <rect id="Rectangle-Copy-2" fill="#000000" opacity="0.5" x="88" y="296" width="72" height="16" rx="4"></rect>
            <rect id="Rectangle-Copy-4" fill="#000000" opacity="0.5" x="32" y="296" width="40" height="16" rx="4"></rect>
            <rect id="Rectangle-Copy-9" fill="#000000" opacity="0.5" x="176" y="168" width="80" height="16" rx="4"></rect>
            <rect id="Rectangle-Copy-10" fill="#000000" opacity="0.5" x="272" y="168" width="112" height="16" rx="4"></rect>
            <rect id="Rectangle-Copy" fill="#000000" opacity="0.5" x="32" y="200" width="88" height="16" rx="4"></rect>
            <rect id="Rectangle-Copy-12" fill="#000000" opacity="0.5" x="232" y="200" width="136" height="16" rx="4"></rect>
            <rect id="Rectangle-Copy-17" fill="#000000" opacity="0.5" x="176" y="296" width="136" height="16" rx="4"></rect>
            <rect id="Rectangle-Copy-6" fill="#000000" opacity="0.5" x="248" y="232" width="80" height="16" rx="4"></rect>
            <rect id="Rectangle-Copy-7" fill="#000000" opacity="0.5" x="304" y="264" width="80" height="16" rx="4"></rect>
            <rect id="Rectangle-Copy-8" fill="#000000" opacity="0.5" x="32" y="264" width="64" height="16" rx="4"></rect>
            <rect id="Rectangle-Copy-11" fill="#000000" opacity="0.5" x="112" y="264" width="88" height="16" rx="4"></rect>
            <rect id="Rectangle-Copy-22" fill="#000000" opacity="0.5" x="96" y="360" width="88" height="16" rx="4"></rect>
            <rect id="Rectangle-Copy-20" fill="#000000" opacity="0.5" x="32" y="328" width="120" height="16" rx="4"></rect>
            <rect id="Rectangle-Copy-18" fill="#000000" opacity="0.5" x="248" y="328" width="112" height="16" rx="4"></rect>
            <rect id="Rectangle-Copy-23" fill="#000000" opacity="0.5" x="80" y="416" width="88" height="16" rx="4"></rect>
            <rect id="Rectangle-Copy-26" fill="#000000" opacity="0.5" x="272" y="464" width="112" height="16" rx="4"></rect>
            <rect id="Rectangle-Copy-24" fill="#000000" opacity="0.5" x="32" y="416" width="32" height="16" rx="4"></rect>
            <rect id="Rectangle-Copy-16" fill="#000000" opacity="0.5" x="216" y="264" width="72" height="16" rx="4"></rect>
            <rect id="Rectangle-Copy-14" fill="#000000" opacity="0.5" x="136" y="200" width="80" height="16" rx="4"></rect>
            <rect id="Rectangle-Copy-15" fill="#000000" opacity="0.5" x="32" y="232" width="120" height="16" rx="4"></rect>
            <rect id="Rectangle-Copy-13" fill="#000000" opacity="0.5" x="168" y="232" width="64" height="16" rx="4"></rect>
            <rect id="Rectangle-Copy-19" fill="#000000" opacity="0.5" x="168" y="328" width="64" height="16" rx="4"></rect>
            <rect id="Rectangle-Copy-25" fill="#000000" opacity="0.5" x="200" y="360" width="80" height="16" rx="4"></rect>
            <rect id="Rectangle-Copy-21" fill="#000000" opacity="0.5" x="32" y="360" width="48" height="16" rx="4"></rect>
        </g>
    </g>
</svg>