<?xml version="1.0" encoding="UTF-8"?>
<svg width="416px" height="592px" viewBox="0 0 416 592" version="1.1" xmlns="http://www.w3.org/2000/svg" xmlns:xlink="http://www.w3.org/1999/xlink">
    <!-- Generator: Sketch 43.1 (39012) - http://www.bohemiancoding.com/sketch -->
    <title>create-a-presence</title>
    <desc>Created with Sketch.</desc>
    <defs>
        <rect id="path-1" x="32" y="208" width="352" height="112" rx="4"></rect>
        <rect id="path-2" x="32" y="448" width="352" height="112" rx="4"></rect>
        <rect id="path-3" x="32" y="344" width="352" height="80" rx="4"></rect>
        <rect id="path-4" x="32" y="32" width="352" height="32" rx="4"></rect>
        <rect id="path-5" x="0" y="0" width="96" height="31"></rect>
    </defs>
    <g id="Page-2" stroke="none" stroke-width="1" fill="none" fill-rule="evenodd">
        <g id="create-a-presence">
            <rect id="Rectangle-4" fill="#000000" opacity="0.5" x="320" y="96" width="64" height="16" rx="4"></rect>
            <rect id="Rectangle-4-Copy-4" fill="#000000" opacity="0.5" x="160" y="96" width="56" height="16" rx="4"></rect>
            <rect id="Rectangle-4-Copy-5" fill="#000000" opacity="0.5" x="232" y="96" width="72" height="16" rx="4"></rect>
            <rect id="Rectangle-4-Copy" fill="#000000" opacity="0.5" x="296" y="128" width="88" height="16" rx="4"></rect>
            <rect id="Rectangle-4-Copy-15" fill="#000000" opacity="0.5" x="160" y="128" width="120" height="16" rx="4"></rect>
            <rect id="Rectangle-4-Copy-2" fill="#000000" opacity="0.5" x="264" y="160" width="120" height="16" rx="4"></rect>
            <rect id="Rectangle-4-Copy-16" fill="#000000" opacity="0.5" x="160" y="160" width="32" height="16" rx="4"></rect>
            <rect id="Rectangle-4-Copy-27" fill="#000000" opacity="0.5" x="208" y="160" width="40" height="16" rx="4"></rect>
            <g id="Rectangle-4-Copy-3" opacity="0.5">
                <use fill="#FFFFFF" fill-rule="evenodd" xlink:href="#path-1"></use>
                <rect stroke="#000000" stroke-width="1" x="32.5" y="208.5" width="351" height="111" rx="4"></rect>
            </g>
            <g id="Rectangle-4-Copy-28" opacity="0.5">
                <use fill="#FFFFFF" fill-rule="evenodd" xlink:href="#path-2"></use>
                <rect stroke="#000000" stroke-width="1" x="32.5" y="448.5" width="351" height="111" rx="4"></rect>
            </g>
            <rect id="Rectangle-4" fill="#000000" opacity="0.5" x="48" y="224" width="104" height="16" rx="4"></rect>
            <rect id="Rectangle-4-Copy-6" fill="#000000" opacity="0.5" x="64" y="256" width="64" height="16" rx="4"></rect>
            <rect id="Rectangle-4-Copy-10" fill="#000000" opacity="0.5" x="272" y="256" width="80" height="16" rx="4"></rect>
            <rect id="Rectangle-4-Copy-8" fill="#000000" opacity="0.5" x="144" y="256" width="112" height="16" rx="4"></rect>
            <rect id="Rectangle-4-Copy-7" fill="#000000" opacity="0.5" x="64" y="288" width="104" height="16" rx="4"></rect>
            <rect id="Rectangle-4-Copy-11" fill="#000000" opacity="0.5" x="288" y="288" width="64" height="16" rx="4"></rect>
            <rect id="Rectangle-4-Copy-9" fill="#000000" opacity="0.5" x="184" y="288" width="88" height="16" rx="4"></rect>
            <g id="Rectangle-4-Copy-35" opacity="0.5">
                <use fill="#FFFFFF" fill-rule="evenodd" xlink:href="#path-3"></use>
                <rect stroke="#000000" stroke-width="1" x="32.5" y="344.5" width="351" height="79" rx="4"></rect>
            </g>
            <rect id="Rectangle-4-Copy-34" fill="#000000" opacity="0.5" x="48" y="360" width="104" height="16" rx="4"></rect>
            <rect id="Rectangle-4-Copy-25" fill="#000000" opacity="0.5" x="64" y="392" width="32" height="16" rx="4"></rect>
            <rect id="Rectangle-4-Copy-24" fill="#000000" opacity="0.5" x="240" y="392" width="112" height="16" rx="4"></rect>
            <rect id="Rectangle-4-Copy-22" fill="#000000" opacity="0.5" x="112" y="392" width="112" height="16" rx="4"></rect>
            <rect id="Rectangle-4-Copy-17" fill="#000000" opacity="0.5" x="48" y="464" width="104" height="16" rx="4"></rect>
            <rect id="Rectangle-4-Copy-20" fill="#000000" opacity="0.5" x="64" y="496" width="96" height="16" rx="4"></rect>
            <rect id="Rectangle-4-Copy-19" fill="#000000" opacity="0.5" x="256" y="496" width="96" height="16" rx="4"></rect>
            <rect id="Rectangle-4-Copy-18" fill="#000000" opacity="0.5" x="176" y="496" width="64" height="16" rx="4"></rect>
            <rect id="Rectangle-4-Copy-23" fill="#000000" opacity="0.5" x="64" y="528" width="80" height="16" rx="4"></rect>
            <rect id="Rectangle-4-Copy-21" fill="#000000" opacity="0.5" x="160" y="528" width="128" height="16" rx="4"></rect>
            <g id="Rectangle" opacity="0.5">
                <use fill="#FFFFFF" fill-rule="evenodd" xlink:href="#path-4"></use>
                <rect stroke="#000000" stroke-width="1" x="32.5" y="32.5" width="351" height="31" rx="4"></rect>
            </g>
            <text id="https://yourdomain.c" font-family="Roboto-Regular, Roboto" font-size="16" font-weight="normal" fill="#1E6FCC">
                <tspan x="40" y="53">https://yourdomain.com</tspan>
            </text>
            <g id="Group-2" transform="translate(32.000000, 95.000000)">
                <g id="Group" transform="translate(0.000000, 50.000000)">
                    <mask id="mask-6" fill="white">
                        <use xlink:href="#path-5"></use>
                    </mask>
                    <use id="Rectangle-3" fill="#FFFFFF" opacity="0.5" xlink:href="#path-5"></use>
                    <ellipse id="Oval-2" fill="#7F7F7F" mask="url(#mask-6)" cx="47.9071567" cy="30.6125" rx="48" ry="30.6125"></ellipse>
                </g>
                <ellipse id="Oval" fill="#7F7F7F" cx="48" cy="29" rx="24" ry="29"></ellipse>
            </g>
        </g>
    </g>
</svg>