<svg width="416" height="592" viewBox="0 0 416 592" xmlns="http://www.w3.org/2000/svg" xmlns:xlink="http://www.w3.org/1999/xlink">
  <title>
    your-data
  </title>
  <defs>
    <rect id="a" x="48" y="376" width="320" height="184" rx="4"/>
    <rect id="b" x="64" y="520" width="190" height="24" rx="4"/>
  </defs>
  <g fill="none" fill-rule="evenodd">
    <use fill="#FFF" xlink:href="#a"/>
    <rect stroke="#1E6FCC" x="48.5" y="376.5" width="319" height="183" rx="4"/>
    <g transform="translate(270 520)">
      <rect fill="#1E6FCC" width="82" height="24" rx="4"/>
      <text font-family="Roboto-Regular, Roboto" font-size="16" fill="#FFF">
        <tspan x="16" y="18">INVITE</tspan>
      </text>
    </g>
    <use fill="#FFF" xlink:href="#b"/>
    <rect stroke="#1E6FCC" x="64.5" y="520.5" width="189" height="23" rx="4"/>
    <text font-family="Roboto-Regular, Roboto" font-size="32" fill="#1E6FCC">
      <tspan x="32" y="62">Oxenbold Branch</tspan>
    </text>
    <text font-family="Roboto-Regular, Roboto" font-size="24" fill="#1E6FCC">
      <tspan x="32" y="358">Members</tspan>
    </text>
    <text font-family="Roboto-Regular, Roboto" font-size="24" fill="#1E6FCC">
      <tspan x="32" y="214">Sync</tspan>
    </text>
    <text font-family="Roboto-Regular, Roboto" font-size="24" fill="#1E6FCC">
      <tspan x="32" y="262">Change Requests</tspan>
    </text>
    <text font-family="Roboto-Regular, Roboto" font-size="24" fill="#1E6FCC">
      <tspan x="32" y="310">Mentions</tspan>
    </text>
    <rect fill="#000" opacity=".37" x="32" y="88" width="112" height="16" rx="4"/>
    <rect fill="#000" opacity=".37" x="160" y="88" width="80" height="16" rx="4"/>
    <rect fill="#000" opacity=".37" x="32" y="120" width="48" height="16" rx="4"/>
    <rect fill="#000" opacity=".37" x="96" y="120" width="96" height="16" rx="4"/>
    <rect fill="#000" opacity=".37" x="64" y="392" width="80" height="16" rx="4"/>
    <rect fill="#000" opacity=".37" x="64" y="424" width="112" height="16" rx="4"/>
    <rect fill="#000" opacity=".37" x="192" y="424" width="40" height="16" rx="4"/>
    <rect fill="#000" opacity=".37" x="64" y="456" width="56" height="16" rx="4"/>
    <rect fill="#000" opacity=".37" x="136" y="456" width="80" height="16" rx="4"/>
    <rect fill="#000" opacity=".37" x="64" y="488" width="96" height="16" rx="4"/>
    <rect fill="#000" opacity=".37" x="256" y="88" width="128" height="16" rx="4"/>
    <rect fill="#000" opacity=".37" x="208" y="120" width="56" height="16" rx="4"/>
    <rect fill="#000" opacity=".37" x="280" y="120" width="80" height="16" rx="4"/>
    <rect fill="#000" opacity=".37" x="32" y="152" width="80" height="16" rx="4"/>
    <rect fill="#000" opacity=".37" x="128" y="152" width="112" height="16" rx="4"/>
    <rect fill="#000" opacity=".37" x="184" y="196" width="104" height="16" rx="4"/>
    <rect fill="#000" opacity=".37" x="304" y="196" width="80" height="16" rx="4"/>
    <rect fill="#000" opacity=".37" x="336" y="244" width="48" height="16" rx="4"/>
    <rect fill="#000" opacity=".37" x="336" y="292" width="48" height="16" rx="4"/>
    <rect fill="#000" opacity=".37" x="336" y="340" width="48" height="16" rx="4"/>
    <rect fill="#000" opacity=".37" x="256" y="152" width="112" height="16" rx="4"/>
    <rect fill="#000" opacity=".37" x="296" y="392" width="56" height="16" rx="4"/>
    <rect fill="#000" opacity=".37" x="296" y="424" width="56" height="16" rx="4"/>
    <rect fill="#000" opacity=".37" x="296" y="456" width="56" height="16" rx="4"/>
    <rect fill="#000" opacity=".37" x="296" y="488" width="56" height="16" rx="4"/>
  </g>
</svg>
