<svg width="416" height="592" viewBox="0 0 416 592" xmlns="http://www.w3.org/2000/svg" xmlns:xlink="http://www.w3.org/1999/xlink">
  <title>
    your-way
  </title>
  <defs>
    <rect id="a" x="32" y="536" width="233" height="24" rx="4"/>
    <rect id="b" x="48" y="216" width="320" height="224" rx="4"/>
  </defs>
  <g fill="none" fill-rule="evenodd">
    <g transform="translate(289 536)">
      <rect fill="#1E6FCC" width="95" height="24" rx="4"/>
      <text font-family="Roboto-Regular, Roboto" font-size="16" fill="#FFF">
        <tspan x="16" y="18">INSTALL</tspan>
      </text>
    </g>
    <use fill="#FFF" xlink:href="#a"/>
    <rect stroke="#1E6FCC" x="32.5" y="536.5" width="232" height="23" rx="4"/>
    <text font-family="Roboto-Regular, Roboto" font-size="32" fill="#1E6FCC">
      <tspan x="32" y="62">Packages</tspan>
    </text>
    <rect fill="#000" opacity=".37" x="32" y="88" width="120" height="16" rx="4"/>
    <rect fill="#000" opacity=".37" x="32" y="120" width="48" height="16" rx="4"/>
    <rect fill="#000" opacity=".37" x="96" y="120" width="96" height="16" rx="4"/>
    <rect fill="#000" opacity=".37" x="32" y="152" width="80" height="16" rx="4"/>
    <rect fill="#000" opacity=".37" x="32" y="184" width="112" height="16" rx="4"/>
    <use fill="#FFF" xlink:href="#b"/>
    <rect stroke="#1E6FCC" x="48.5" y="216.5" width="319" height="223" rx="4"/>
    <rect fill="#000" opacity=".37" x="160" y="184" width="40" height="16" rx="4"/>
    <rect fill="#000" opacity=".37" x="64" y="232" width="112" height="16" rx="4"/>
    <rect fill="#000" opacity=".37" x="192" y="232" width="40" height="16" rx="4"/>
    <rect fill="#000" opacity=".37" x="64" y="280" width="48" height="16" rx="4"/>
    <rect fill="#000" opacity=".37" x="128" y="280" width="96" height="16" rx="4"/>
    <rect fill="#000" opacity=".37" x="240" y="280" width="80" height="16" rx="4"/>
    <rect fill="#000" opacity=".37" x="64" y="312" width="88" height="16" rx="4"/>
    <rect fill="#000" opacity=".37" x="168" y="312" width="120" height="16" rx="4"/>
    <rect fill="#000" opacity=".37" x="304" y="312" width="48" height="16" rx="4"/>
    <rect fill="#000" opacity=".37" x="64" y="344" width="56" height="16" rx="4"/>
    <rect fill="#000" opacity=".37" x="136" y="344" width="56" height="16" rx="4"/>
    <rect fill="#000" opacity=".37" x="208" y="344" width="56" height="16" rx="4"/>
    <rect fill="#000" opacity=".37" x="280" y="344" width="64" height="16" rx="4"/>
    <rect fill="#000" opacity=".37" x="64" y="376" width="112" height="16" rx="4"/>
    <rect fill="#000" opacity=".37" x="192" y="376" width="104" height="16" rx="4"/>
    <rect fill="#000" opacity=".37" x="312" y="376" width="40" height="16" rx="4"/>
    <rect fill="#000" opacity=".37" x="64" y="408" width="72" height="16" rx="4"/>
    <rect fill="#000" opacity=".37" x="152" y="408" width="96" height="16" rx="4"/>
    <rect fill="#000" opacity=".37" x="264" y="408" width="80" height="16" rx="4"/>
    <rect fill="#000" opacity=".37" x="32" y="456" width="64" height="16" rx="4"/>
    <rect fill="#000" opacity=".37" x="112" y="456" width="72" height="16" rx="4"/>
    <rect fill="#000" opacity=".37" x="32" y="488" width="96" height="16" rx="4"/>
    <rect fill="#000" opacity=".37" x="328" y="88" width="56" height="16" rx="4"/>
    <rect fill="#000" opacity=".37" x="328" y="120" width="56" height="16" rx="4"/>
    <rect fill="#000" opacity=".37" x="328" y="152" width="56" height="16" rx="4"/>
    <rect fill="#000" opacity=".37" x="328" y="184" width="56" height="16" rx="4"/>
    <rect fill="#000" opacity=".37" x="328" y="456" width="56" height="16" rx="4"/>
    <rect fill="#000" opacity=".37" x="328" y="488" width="56" height="16" rx="4"/>
  </g>
</svg>
