<?xml version="1.0" encoding="UTF-8"?>
<svg width="416px" height="592px" viewBox="0 0 416 592" version="1.1" xmlns="http://www.w3.org/2000/svg" xmlns:xlink="http://www.w3.org/1999/xlink">
    <!-- Generator: Sketch 43.1 (39012) - http://www.bohemiancoding.com/sketch -->
    <title>your-way</title>
    <desc>Created with Sketch.</desc>
    <defs>
        <rect id="path-1" x="32" y="298" width="153" height="24" rx="4"></rect>
    </defs>
    <g id="Page-2" stroke="none" stroke-width="1" fill="none" fill-rule="evenodd">
        <g id="your-way">
            <g id="Group" transform="translate(201.000000, 298.000000)">
                <rect id="Rectangle-4" fill="#1E6FCC" x="0" y="0" width="95" height="24" rx="4"></rect>
                <text id="INSTALL" font-family="Roboto-Medium, Roboto" font-size="16" font-weight="400" fill="#FFFFFF">
                    <tspan x="16" y="18">INSTALL</tspan>
                </text>
            </g>
            <g id="Rectangle-3">
                <use fill="#FFFFFF" fill-rule="evenodd" xlink:href="#path-1"></use>
                <rect stroke="#1E6FCC" stroke-width="1" x="32.5" y="298.5" width="152" height="23" rx="4"></rect>
            </g>
            <text id="Packages" font-family="Roboto-Regular, Roboto" font-size="32" font-weight="normal" line-spacing="32" fill="#1E6FCC">
                <tspan x="32" y="62">Packages</tspan>
            </text>
            <rect id="Rectangle-Copy-2" fill="#000000" opacity="0.5" x="32" y="88" width="120" height="16" rx="4"></rect>
            <rect id="Rectangle-Copy-6" fill="#000000" opacity="0.5" x="32" y="120" width="48" height="16" rx="4"></rect>
            <rect id="Rectangle-Copy-11" fill="#000000" opacity="0.5" x="96" y="120" width="96" height="16" rx="4"></rect>
            <rect id="Rectangle-Copy-7" fill="#000000" opacity="0.5" x="32" y="152" width="80" height="16" rx="4"></rect>
            <rect id="Rectangle-Copy-8" fill="#000000" opacity="0.5" x="32" y="184" width="112" height="16" rx="4"></rect>
            <rect id="Rectangle-Copy-12" fill="#000000" opacity="0.5" x="160" y="184" width="40" height="16" rx="4"></rect>
            <rect id="Rectangle-Copy-9" fill="#000000" opacity="0.5" x="32" y="216" width="64" height="16" rx="4"></rect>
            <rect id="Rectangle-Copy-13" fill="#000000" opacity="0.5" x="112" y="216" width="72" height="16" rx="4"></rect>
            <rect id="Rectangle-Copy-10" fill="#000000" opacity="0.5" x="32" y="248" width="96" height="16" rx="4"></rect>
            <rect id="Rectangle-Copy-12" fill="#000000" opacity="0.5" x="328" y="88" width="56" height="16" rx="4"></rect>
            <rect id="Rectangle-Copy-14" fill="#000000" opacity="0.5" x="328" y="120" width="56" height="16" rx="4"></rect>
            <rect id="Rectangle-Copy-15" fill="#000000" opacity="0.5" x="328" y="152" width="56" height="16" rx="4"></rect>
            <rect id="Rectangle-Copy-16" fill="#000000" opacity="0.5" x="328" y="184" width="56" height="16" rx="4"></rect>
            <rect id="Rectangle-Copy-17" fill="#000000" opacity="0.5" x="328" y="216" width="56" height="16" rx="4"></rect>
            <rect id="Rectangle-Copy-18" fill="#000000" opacity="0.5" x="328" y="248" width="56" height="16" rx="4"></rect>
        </g>
    </g>
</svg>