<?xml version="1.0" encoding="UTF-8"?>
<svg width="416px" height="592px" viewBox="0 0 416 592" version="1.1" xmlns="http://www.w3.org/2000/svg" xmlns:xlink="http://www.w3.org/1999/xlink">
    <!-- Generator: Sketch 43.1 (39012) - http://www.bohemiancoding.com/sketch -->
    <title>your-data</title>
    <desc>Created with Sketch.</desc>
    <defs>
        <rect id="path-1" x="32" y="536" width="174" height="24" rx="4"></rect>
    </defs>
    <g id="Page-2" stroke="none" stroke-width="1" fill="none" fill-rule="evenodd">
        <g id="your-data">
            <g id="Group" transform="translate(222.000000, 536.000000)">
                <rect id="Rectangle-4" fill="#000000" opacity="0.5" x="0" y="0" width="82" height="24" rx="4"></rect>
                <text id="INVITE" font-family="Roboto-Medium, Roboto" font-size="16" font-weight="400" fill="#FFFFFF">
                    <tspan x="16" y="18">INVITE</tspan>
                </text>
            </g>
            <g id="Rectangle-3" opacity="0.5">
                <use fill="#FFFFFF" fill-rule="evenodd" xlink:href="#path-1"></use>
                <rect stroke="#000000" stroke-width="1" x="32.5" y="536.5" width="173" height="23" rx="4"></rect>
            </g>
            <text id="Oxenbold-Branch" font-family="Roboto-Regular, Roboto" font-size="32" font-weight="normal" line-spacing="32" fill="#1E6FCC">
                <tspan x="32" y="62">Oxenbold Branch</tspan>
            </text>
            <text id="Members" font-family="Roboto-Regular, Roboto" font-size="32" font-weight="normal" line-spacing="32" fill="#1E6FCC">
                <tspan x="32" y="382">Members</tspan>
            </text>
            <text id="Sync:-ON" font-family="Roboto-Regular, Roboto" font-size="24" font-weight="normal" line-spacing="32" fill="#1E6FCC">
                <tspan x="294" y="294">Sync: </tspan>
                <tspan x="357.152344" y="294" font-size="18">ON</tspan>
            </text>
            <rect id="Rectangle-Copy-2" fill="#000000" opacity="0.5" x="32" y="88" width="96" height="16" rx="4"></rect>
            <rect id="Rectangle-Copy-19" fill="#000000" opacity="0.5" x="144" y="88" width="56" height="16" rx="4"></rect>
            <rect id="Rectangle-Copy-6" fill="#000000" opacity="0.5" x="32" y="120" width="48" height="16" rx="4"></rect>
            <rect id="Rectangle-Copy-11" fill="#000000" opacity="0.5" x="96" y="120" width="88" height="16" rx="4"></rect>
            <rect id="Rectangle-Copy-7" fill="#000000" opacity="0.5" x="32" y="408" width="80" height="16" rx="4"></rect>
            <rect id="Rectangle-Copy-8" fill="#000000" opacity="0.5" x="32" y="440" width="112" height="16" rx="4"></rect>
            <rect id="Rectangle-Copy-12" fill="#000000" opacity="0.5" x="160" y="440" width="40" height="16" rx="4"></rect>
            <rect id="Rectangle-Copy-9" fill="#000000" opacity="0.5" x="32" y="472" width="56" height="16" rx="4"></rect>
            <rect id="Rectangle-Copy-13" fill="#000000" opacity="0.5" x="104" y="472" width="80" height="16" rx="4"></rect>
            <rect id="Rectangle-Copy-10" fill="#000000" opacity="0.5" x="32" y="504" width="96" height="16" rx="4"></rect>
            <rect id="Rectangle-Copy-12" fill="#000000" opacity="0.5" x="216" y="88" width="120" height="16" rx="4"></rect>
            <rect id="Rectangle-Copy-14" fill="#000000" opacity="0.5" x="200" y="120" width="56" height="16" rx="4"></rect>
            <rect id="Rectangle-Copy-20" fill="#000000" opacity="0.5" x="272" y="120" width="64" height="16" rx="4"></rect>
            <rect id="Rectangle-Copy-24" fill="#000000" opacity="0.5" x="32" y="152" width="72" height="16" rx="4"></rect>
            <rect id="Rectangle-Copy-23" fill="#000000" opacity="0.5" x="120" y="152" width="112" height="16" rx="4"></rect>
            <rect id="Rectangle-Copy-21" fill="#000000" opacity="0.5" x="248" y="152" width="88" height="16" rx="4"></rect>
            <rect id="Rectangle-Copy-15" fill="#000000" opacity="0.5" x="328" y="408" width="56" height="16" rx="4"></rect>
            <rect id="Rectangle-Copy-16" fill="#000000" opacity="0.5" x="328" y="440" width="56" height="16" rx="4"></rect>
            <rect id="Rectangle-Copy-17" fill="#000000" opacity="0.5" x="328" y="472" width="56" height="16" rx="4"></rect>
            <rect id="Rectangle-Copy-18" fill="#000000" opacity="0.5" x="328" y="504" width="56" height="16" rx="4"></rect>
        </g>
    </g>
</svg>